<?xml version="1.0" encoding="utf-8"?>
<!-- Generator: Adobe Illustrator 27.9.0, SVG Export Plug-In . SVG Version: 6.00 Build 0)  -->
<svg version="1.1" id="svg" xmlns="http://www.w3.org/2000/svg" xmlns:xlink="http://www.w3.org/1999/xlink" x="0px" y="0px"
	 viewBox="0 0 177.2 52.3" style="enable-background:new 0 0 177.2 52.3;" xml:space="preserve">
<style type="text/css">
	.st0{fill-rule:evenodd;clip-rule:evenodd;fill:#043F68;}
	.st1{fill-rule:evenodd;clip-rule:evenodd;fill:#3B393A;}
	.st2{fill-rule:evenodd;clip-rule:evenodd;fill:#1E94D4;}
</style>
<path class="st0" d="M14.6,28.4c1.6-0.1,8.8-0.1,15.9-0.1h13v-1.1c0-14-10.7-23.3-23.7-20.5C7.3,9.2,0.8,22.9,6.2,34.9
	C11.9,47.3,31.3,49.7,40,39c1.3-1.6,1.4-1.5-1.5-3.2l-2.5-1.5l-1.5,1.5c-5.8,5.8-16.6,5-21-1.5c-0.9-1.3-2-4.1-2-5.2v-0.6L14.6,28.4
	z M11.9,20.8c1.9-6.5,8.9-10,15.9-8c4.2,1.2,7.4,4.7,8.1,8.8l0.2,0.9H23.8c-10,0-12.2,0-12.2-0.3C11.6,22.1,11.7,21.4,11.9,20.8z"/>
<path class="st0" d="M45.1,7.5c0.1,0.3,0.6,1.6,1.1,2.9c0.5,1.3,1.7,4.2,2.6,6.4c2.6,6.4,4.4,10.9,5,12.2c0.3,0.7,1.2,3,2.1,5.1
	c0.9,2.2,1.9,4.6,2.2,5.3c0.3,0.8,0.9,2.3,1.4,3.4l0.9,2l3.7,0.1l3.7,0.1l0.6-1.6c0.3-0.9,1.6-3.8,2.7-6.6c1.1-2.8,2.3-5.6,2.6-6.3
	c0.3-0.7,0.8-1.8,1-2.5c1-2.5,2.1-5,3.5-8.6c3.9-9.6,4.9-12.1,4.9-12.3c0-0.1-1.6-0.2-3.6-0.2H76l-0.5,1.3c-0.3,0.7-0.8,2-1.1,2.9
	c-0.3,0.9-1,2.6-1.4,3.7c-0.4,1.1-1.4,3.7-2.2,5.7c-3.1,8-5.6,14.4-6.1,15.5c-0.6,1.6-0.7,1.5-1.6-0.8c-0.4-1.1-0.9-2.3-1-2.7
	s-1.2-3.2-2.4-6.2c-2.5-6.6-4.5-11.5-6.2-16l-1.3-3.3h-3.6h-3.6L45.1,7.5"/>
<g>
	<path class="st1" d="M148.6,3.3c-0.1,0.4-0.3,1.4-0.5,2c-0.2,1-0.4,1.2-0.8,1.4c-0.3,0.1-1,0.3-1.6,0.5l-1.1,0.3l-1.5-1.5l-1.5-1.5
		l-1.7,0.9c-2.2,1.2-2.1,1-1.6,2.9c0.3,0.9,0.5,1.8,0.6,2c0.1,0.3-0.2,0.7-1.2,1.6l-1.3,1.1l-1.7-0.5c-2.4-0.8-2.3-0.8-3.5,1.1
		c-1.5,2.4-1.7,2.3,4.7,2.3c5.5,0,5.5,0,6.1-0.5c5.2-4.8,13.1-4.6,18.2,0.5c8.2,8.3,2.3,22.5-9.3,22.4c-2.8,0-6.2-1.1-7.8-2.6
		c-0.5-0.4-12.4-0.6-12.4-0.2c0,0.5,1.9,3,2.2,3c0.2,0,1.1-0.2,2.1-0.5l1.7-0.5l1.2,1.1c1.5,1.4,1.5,1.2,0.8,3.1
		c-0.8,2.4-1,2.1,1.9,3.7l1.1,0.6l1.5-1.6l1.5-1.6l1.6,0.4c1.8,0.4,1.9,0.6,2.4,3c0.3,1.6,0.7,1.8,3,1.5l1.7-0.2l0.3-1.1
		c0.1-0.6,0.3-1.5,0.4-1.9c0.2-0.9,0.2-0.9,2.3-1.5l1.2-0.3l1.5,1.5l1.5,1.5l1.6-0.9c2.3-1.2,2.2-1.1,1.5-3.3l-0.6-1.9l1.2-1.2
		c0.6-0.7,1.2-1.2,1.2-1.3s0.9,0.2,2,0.5c1.1,0.3,2,0.6,2.1,0.6c0.1,0,1.8-2.9,2.1-3.6c0-0.1-0.6-0.8-1.5-1.6l-1.5-1.5l0.5-1.6
		l0.5-1.6l1.9-0.5c2.4-0.6,2.3-0.5,2.3-2.8l-0.1-1.9l-2-0.5c-2.2-0.5-2.2-0.5-2.8-2.7l-0.3-1.1l1.3-1.3c0.7-0.7,1.4-1.3,1.5-1.3
		c0.4-0.1,0.2-0.6-0.6-2c-1.2-2.2-1.5-2.3-4.7-1c-0.6,0.2-0.7,0.2-1.8-1c-1.4-1.4-1.4-1.4-0.6-3.6c0.3-0.9,0.5-1.7,0.5-1.7
		c-0.4-0.4-3.4-2.1-3.7-2.1c-0.2,0-1,0.6-1.7,1.4l-1.3,1.4l-0.9-0.3c-0.5-0.2-1.1-0.3-1.4-0.3c-0.7,0-1.2-0.7-1.4-1.9
		c-0.1-0.6-0.3-1.4-0.5-1.8L153,2.5h-2.1h-2.1L148.6,3.3"/>
	<path class="st1" d="M110.1,18.1c-6.1,1.9-7.3,10.6-1.9,14.1c2,1.3,3.1,1.4,13,1.2l8.9-0.2l-2.3-2.6l-2.3-2.6h-6.9
		c-7.7,0-7.8,0-8.5-1.5c-0.5-1.1-0.3-1.7,0.5-2.7l0.6-0.7l7.1-0.1l7.1-0.1l1.3-1.4c1.3-1.4,2.5-2.8,3.1-3.5
		C130.3,17.6,111.9,17.6,110.1,18.1"/>
</g>
<path id="path3" class="st2" d="M102.8,2.4c-0.2,0.1-0.5,1-0.7,2.1l-0.4,1.9l-1.4,0.4c-1.9,0.5-1.7,0.6-3.3-0.9
	c-1.7-1.6-1.5-1.5-3.5-0.4c-1.9,1.1-1.9,1.1-1.3,3.1c0.3,0.9,0.5,1.7,0.5,1.8c0,0.1-0.5,0.8-1.1,1.5l-1.1,1.2l-1.9-0.5
	c-2.3-0.7-2.3-0.7-3.2,1.2c-1,2-1,1.9,0.6,3.5l1.4,1.4l-0.3,0.9c-0.2,0.5-0.3,1.1-0.3,1.3c0,0.8-0.4,1-2,1.3
	c-2.5,0.5-2.4,0.4-2.3,2.9l0.1,2.1l1.9,0.5c2,0.5,2,0.5,2.7,2.6l0.4,1.1l-1.4,1.3c-0.9,0.8-1.4,1.5-1.4,1.7c0,0.5,1.8,3.7,2.1,3.7
	c0.1,0,1-0.3,2-0.5l1.8-0.5l1.2,1.2l1.2,1.2l-0.6,1.9c-0.7,2.2-0.7,2.1,1.4,3.4c1.9,1.1,1.5,1.1,3.3-0.6l1.5-1.5l1.6,0.5l1.6,0.5
	l0.3,1.2c0.2,0.7,0.4,1.6,0.5,2l0.2,0.8l2.2-0.1l2.2-0.1l0.3-1.2c0.7-2.9,0.5-2.7,2.3-3.2l1.6-0.4l1.4,1.5c1.6,1.7,1.6,1.7,3.7,0.4
	c1.7-1,1.7-1,1-3.2l-0.6-1.8l1.3-1.2l1.3-1.2l2,0.6l2,0.6l0.4-0.6c2.2-3.1,2.5-2.9-4.5-2.9h-5.8l-1.5,1c-6.3,4.2-15,1.7-18.5-5.1
	c-6.3-12.7,9-25,19.9-16.1l1,0.8h5.3c6.5,0,6.3,0.1,4.9-2.2c-1.3-2-1.3-2.1-3-1.5c-0.8,0.2-1.6,0.5-1.9,0.6
	c-0.4,0.1-0.7-0.1-1.7-1.1l-1.2-1.2l0.5-1.6c0.7-2.2,0.7-2.3-0.4-2.9c-0.5-0.3-1.4-0.8-1.9-1.1l-0.9-0.5l-1.4,1.4
	c-1.5,1.6-1.6,1.6-3.3,1.1c-1.5-0.4-1.5-0.4-1.9-2.3c-0.2-0.9-0.4-1.7-0.6-1.9C106.9,2.2,103.3,2.1,102.8,2.4 M133.2,17.7
	c-1.1,0.7-4.7,5.2-4.3,5.3c0.2,0.1,3.8,0.2,8,0.2c7.2,0,7.6,0,8.1,0.4c1.3,1,1.3,2.8,0.1,3.8l-0.7,0.6h-8c-4.7,0-7.9,0.1-7.9,0.2
	c0,0.1,1.1,1.3,2.4,2.7l2.3,2.5l6.1-0.1c6.1-0.1,6.1-0.1,7.4-0.6c7.1-3.3,5.8-13.8-2-15C143.3,17.5,133.6,17.5,133.2,17.7
	 M61.3,45.2c0.3,0.1,0.7,0.1,1,0s0-0.1-0.5-0.1C61.2,45.1,61,45.1,61.3,45.2"/>
</svg>
